<?xml version="1.0" encoding="utf-8"?>
<!-- Generator: Adobe Illustrator 16.0.3, SVG Export Plug-In . SVG Version: 6.00 Build 0)  -->
<!DOCTYPE svg PUBLIC "-//W3C//DTD SVG 1.1//EN" "http://www.w3.org/Graphics/SVG/1.1/DTD/svg11.dtd">
<svg version="1.1" id="Layer_1" xmlns="http://www.w3.org/2000/svg" xmlns:xlink="http://www.w3.org/1999/xlink" x="0px" y="0px"
	 width="90.961px" height="81.078px" viewBox="0 0 90.961 81.078" enable-background="new 0 0 90.961 81.078" xml:space="preserve">
<g>
	<g>
		<path fill="#FFFFFF" d="M86.883,0.75H4.076c-1.834,0-3.326,1.904-3.326,4.244v71.09c0,2.34,1.492,4.244,3.326,4.244h82.807
			c1.835,0,3.328-1.904,3.328-4.244V4.994C90.211,2.654,88.718,0.75,86.883,0.75z"/>
		<path d="M86.883,0H4.076C1.829,0,0,2.24,0,4.994v71.089c0,2.754,1.829,4.995,4.076,4.995h82.807c2.249,0,4.078-2.241,4.078-4.994
			V4.994C90.961,2.24,89.132,0,86.883,0z M90.211,76.084c0,2.34-1.493,4.244-3.328,4.244H4.076c-1.834,0-3.326-1.904-3.326-4.244
			V4.994c0-2.34,1.492-4.244,3.326-4.244h82.807c1.835,0,3.328,1.904,3.328,4.244V76.084z"/>
	</g>
	<path d="M87.37,69.169H3.588c-0.219,0-0.397-0.178-0.397-0.397V7.428c0-2.512,1.672-4.555,3.727-4.555h77.123
		c2.055,0,3.727,2.043,3.727,4.555v61.344C87.768,68.992,87.59,69.169,87.37,69.169z M3.985,68.375h82.988V7.428
		c0-2.074-1.314-3.761-2.933-3.761H6.918c-1.617,0-2.933,1.687-2.933,3.761V68.375z"/>
	<path fill="#FFFFFF" d="M85.766,72.436c0,2.168-1.408,3.926-3.146,3.926H8.34c-1.738,0-3.146-1.758-3.146-3.926V8.643
		c0-2.169,1.408-3.926,3.146-3.926h74.279c1.738,0,3.146,1.757,3.146,3.926V72.436L85.766,72.436z"/>
	<path d="M82.619,76.736H8.34c-1.941,0-3.521-1.93-3.521-4.301V8.643c0-2.372,1.58-4.301,3.521-4.301h74.279
		c1.941,0,3.521,1.93,3.521,4.301v63.792C86.141,74.807,84.561,76.736,82.619,76.736z M8.34,5.092c-1.528,0-2.771,1.593-2.771,3.551
		v63.792c0,1.959,1.243,3.551,2.771,3.551h74.279c1.527,0,2.771-1.592,2.771-3.551V8.643c0-1.958-1.244-3.551-2.771-3.551H8.34z"/>
	<path d="M84.398,71.402c0,2.061-1.338,3.729-2.986,3.729H9.547c-1.65,0-2.986-1.67-2.986-3.729V9.678
		c0-2.061,1.336-3.729,2.986-3.729h71.865c1.648,0,2.986,1.669,2.986,3.729V71.402L84.398,71.402z"/>
	<path fill="#F3901D" d="M12.452,60.784c0.375-0.455,0.801-0.948,0.845-1.749v-5.859c0-2.551-0.861-2.984-1.7-3.766
		c-1.389-1.291-1.18-3.121-1.103-5.484c0.213-6.552,0.46-10.499,0.485-16.62c0.003-0.78,0.636-1.417,1.417-1.417
		s1.417,0.637,1.417,1.417l0.486,9.934l0.644-0.016c0.102-4.537,0.31-9.115,0.31-13.65c0-0.779,0.636-1.416,1.417-1.416
		c0.779,0,1.415,0.637,1.415,1.416c0,0.013,0,0.028,0.005,0.041l0.195,13.622h0.656c0.184-5.14,0.551-10.394,0.551-15.528
		c0-0.78,0.637-1.416,1.415-1.416c0.781,0,1.418,0.636,1.418,1.416v0.018l0.305,15.51h0.859c0.049-4.579,0.101-9.158,0.151-13.737
		c0.032-0.75,0.662-1.342,1.414-1.342c0.764,0,1.401,0.614,1.417,1.383l0.7,18.266c-0.006,0.338,0.296,0.59,0.633,0.59
		c0.192,0,0.628-0.137,0.967-0.656l3.202-4.638c1.212-1.702,2.829-2.038,4.725-1.321c-1.175,2.209-3.6,7.656-6.06,10.716
		c-1.297,2.028-5.648,4.062-5.648,6.672v5.342c0,1.099,1.084,2.341,1.036,2.274L12.452,60.784L12.452,60.784z"/>
</g>
</svg>
