<?xml version="1.0" encoding="utf-8"?>
<!-- Generator: Adobe Illustrator 16.0.3, SVG Export Plug-In . SVG Version: 6.00 Build 0)  -->
<!DOCTYPE svg PUBLIC "-//W3C//DTD SVG 1.1//EN" "http://www.w3.org/Graphics/SVG/1.1/DTD/svg11.dtd">
<svg version="1.1" id="Layer_1" xmlns="http://www.w3.org/2000/svg" xmlns:xlink="http://www.w3.org/1999/xlink" x="0px" y="0px"
	 width="90.961px" height="81.078px" viewBox="0 0 90.961 81.078" enable-background="new 0 0 90.961 81.078" xml:space="preserve">
<g>
	<g>
		<path fill="#F1F2F2" d="M86.883,0.75H4.076c-1.834,0-3.326,1.904-3.326,4.244v71.09c0,2.34,1.492,4.243,3.326,4.243h82.807
			c1.835,0,3.328-1.903,3.328-4.243V4.994C90.211,2.654,88.718,0.75,86.883,0.75z"/>
		<path d="M86.883,0H4.076C1.829,0,0,2.241,0,4.994v71.09c0,2.753,1.829,4.993,4.076,4.993h82.807c2.249,0,4.078-2.24,4.078-4.993
			V4.994C90.961,2.241,89.132,0,86.883,0z M90.211,76.084c0,2.34-1.493,4.243-3.328,4.243H4.076c-1.834,0-3.326-1.903-3.326-4.243
			V4.994c0-2.34,1.492-4.244,3.326-4.244h82.807c1.835,0,3.328,1.904,3.328,4.244V76.084z"/>
	</g>
	<path d="M87.37,69.17H3.588c-0.219,0-0.397-0.178-0.397-0.397V7.428c0-2.511,1.672-4.555,3.727-4.555h77.123
		c2.055,0,3.727,2.043,3.727,4.555v61.345C87.768,68.993,87.59,69.17,87.37,69.17z M3.985,68.375h82.987V7.428
		c0-2.074-1.314-3.761-2.932-3.761H6.918c-1.617,0-2.933,1.687-2.933,3.761V68.375z"/>
	<path fill="#FFFFFF" d="M85.766,72.437c0,2.168-1.408,3.926-3.146,3.926H8.34c-1.738,0-3.146-1.758-3.146-3.926V8.644
		c0-2.169,1.408-3.926,3.146-3.926h74.279c1.738,0,3.146,1.757,3.146,3.926V72.437z"/>
	<path d="M82.619,76.738H8.34c-1.941,0-3.521-1.93-3.521-4.301V8.644c0-2.372,1.58-4.301,3.521-4.301h74.279
		c1.941,0,3.521,1.93,3.521,4.301v63.793C86.141,74.808,84.561,76.738,82.619,76.738z M8.34,5.092c-1.528,0-2.771,1.593-2.771,3.551
		v63.793c0,1.958,1.243,3.551,2.771,3.551h74.279c1.528,0,2.771-1.593,2.771-3.551V8.644c0-1.958-1.243-3.551-2.771-3.551H8.34z"/>
	<path d="M84.399,71.404c0,2.059-1.338,3.729-2.987,3.729H9.547c-1.65,0-2.986-1.67-2.986-3.729V9.678
		c0-2.061,1.336-3.73,2.986-3.73h71.865c1.649,0,2.987,1.669,2.987,3.73V71.404z"/>
	<path fill-rule="evenodd" clip-rule="evenodd" fill="#FFFFFF" d="M25.336,20.293c-1.632,0-2.963,1.331-2.963,2.962
		c0,1.633,1.331,2.965,2.963,2.965c1.632,0,2.963-1.332,2.963-2.965C28.299,21.625,26.968,20.293,25.336,20.293"/>
	<path fill-rule="evenodd" clip-rule="evenodd" fill="#FFFFFF" d="M34.308,38.975l-6.216-4.142
		c-0.288-1.215-1.478-6.605-3.869-7.854c-2.369-1.568-11.1,4.865-11.15,4.918v9.383l1.893-0.33l0.741-7.489
		c0.713-0.142,1.426-0.287,2.139-0.429c-1.558,4.029-2.131,7.912-1.234,10.472l-3.786,15.472l2.551,1.811l5.515-14.32l2.551,2.716
		l3.54,10.782l3.374-1.234l-3.045-11.359l-3.539-6.336l1.355-4.678l1.443,1.879l6.749,2.223L34.308,38.975z"/>
</g>
</svg>
